<svg width="1148" height="308" viewBox="0 0 1148 308" fill="none" xmlns="http://www.w3.org/2000/svg">
<g filter="url(#filter0_f)">
<rect x="54" y="54" width="1040" height="200" rx="10" fill="#E0E0E0" fill-opacity="0.15"/>
</g>
<rect x="54" y="34" width="1040" height="200" rx="10" fill="white"/>
<path d="M219.672 165.112C218.936 165.112 218.285 164.984 217.72 164.728C217.165 164.472 216.728 164.115 216.408 163.656C216.088 163.197 215.917 162.685 215.896 162.12H217.08C217.133 162.664 217.373 163.144 217.8 163.56C218.227 163.965 218.851 164.168 219.672 164.168C220.429 164.168 221.027 163.976 221.464 163.592C221.912 163.197 222.136 162.701 222.136 162.104C222.136 161.624 222.013 161.24 221.768 160.952C221.523 160.653 221.219 160.435 220.856 160.296C220.493 160.147 219.992 159.987 219.352 159.816C218.605 159.613 218.013 159.416 217.576 159.224C217.139 159.032 216.765 158.733 216.456 158.328C216.147 157.923 215.992 157.373 215.992 156.68C215.992 156.104 216.141 155.592 216.44 155.144C216.739 154.685 217.16 154.328 217.704 154.072C218.248 153.816 218.872 153.688 219.576 153.688C220.611 153.688 221.443 153.944 222.072 154.456C222.712 154.957 223.08 155.608 223.176 156.408H221.96C221.885 155.949 221.635 155.544 221.208 155.192C220.781 154.829 220.205 154.648 219.48 154.648C218.808 154.648 218.248 154.829 217.8 155.192C217.352 155.544 217.128 156.029 217.128 156.648C217.128 157.117 217.251 157.496 217.496 157.784C217.741 158.072 218.045 158.291 218.408 158.44C218.781 158.589 219.283 158.749 219.912 158.92C220.637 159.123 221.224 159.325 221.672 159.528C222.12 159.72 222.499 160.019 222.808 160.424C223.117 160.829 223.272 161.373 223.272 162.056C223.272 162.579 223.133 163.075 222.856 163.544C222.579 164.013 222.168 164.392 221.624 164.68C221.08 164.968 220.429 165.112 219.672 165.112ZM224.924 160.616C224.924 159.72 225.1 158.936 225.452 158.264C225.815 157.581 226.311 157.059 226.94 156.696C227.58 156.323 228.3 156.136 229.1 156.136C229.932 156.136 230.647 156.328 231.244 156.712C231.852 157.096 232.29 157.587 232.556 158.184V156.264H233.676V165H232.556V163.064C232.279 163.661 231.836 164.157 231.228 164.552C230.631 164.936 229.916 165.128 229.084 165.128C228.295 165.128 227.58 164.941 226.94 164.568C226.311 164.195 225.815 163.667 225.452 162.984C225.1 162.301 224.924 161.512 224.924 160.616ZM232.556 160.632C232.556 159.928 232.412 159.309 232.124 158.776C231.836 158.243 231.442 157.832 230.94 157.544C230.45 157.256 229.906 157.112 229.308 157.112C228.69 157.112 228.135 157.251 227.644 157.528C227.154 157.805 226.764 158.211 226.476 158.744C226.199 159.267 226.06 159.891 226.06 160.616C226.06 161.331 226.199 161.96 226.476 162.504C226.764 163.037 227.154 163.448 227.644 163.736C228.135 164.013 228.69 164.152 229.308 164.152C229.906 164.152 230.45 164.008 230.94 163.72C231.442 163.432 231.836 163.021 232.124 162.488C232.412 161.955 232.556 161.336 232.556 160.632ZM237.689 157.208V162.632C237.689 163.165 237.79 163.533 237.993 163.736C238.196 163.939 238.553 164.04 239.065 164.04H240.089V165H238.889C238.1 165 237.513 164.819 237.129 164.456C236.745 164.083 236.553 163.475 236.553 162.632V157.208H235.337V156.264H236.553V154.072H237.689V156.264H240.089V157.208H237.689ZM242.496 154.616C242.272 154.616 242.08 154.536 241.92 154.376C241.76 154.216 241.68 154.019 241.68 153.784C241.68 153.549 241.76 153.357 241.92 153.208C242.08 153.048 242.272 152.968 242.496 152.968C242.72 152.968 242.912 153.048 243.072 153.208C243.232 153.357 243.312 153.549 243.312 153.784C243.312 154.019 243.232 154.216 243.072 154.376C242.912 154.536 242.72 154.616 242.496 154.616ZM243.056 156.264V165H241.936V156.264H243.056ZM248.601 165.128C247.598 165.128 246.777 164.899 246.137 164.44C245.507 163.971 245.155 163.336 245.081 162.536H246.233C246.286 163.027 246.515 163.427 246.921 163.736C247.337 164.035 247.891 164.184 248.585 164.184C249.193 164.184 249.667 164.04 250.009 163.752C250.361 163.464 250.537 163.107 250.537 162.68C250.537 162.381 250.441 162.136 250.249 161.944C250.057 161.752 249.811 161.603 249.513 161.496C249.225 161.379 248.83 161.256 248.329 161.128C247.678 160.957 247.15 160.787 246.745 160.616C246.339 160.445 245.993 160.195 245.705 159.864C245.427 159.523 245.289 159.069 245.289 158.504C245.289 158.077 245.417 157.683 245.673 157.32C245.929 156.957 246.291 156.669 246.761 156.456C247.23 156.243 247.763 156.136 248.361 156.136C249.299 156.136 250.057 156.376 250.633 156.856C251.209 157.325 251.518 157.976 251.561 158.808H250.441C250.409 158.296 250.206 157.885 249.833 157.576C249.47 157.256 248.969 157.096 248.329 157.096C247.763 157.096 247.305 157.229 246.953 157.496C246.601 157.763 246.424 158.093 246.424 158.488C246.424 158.829 246.526 159.112 246.729 159.336C246.942 159.549 247.203 159.72 247.513 159.848C247.822 159.965 248.238 160.099 248.761 160.248C249.39 160.419 249.891 160.584 250.265 160.744C250.638 160.904 250.958 161.139 251.225 161.448C251.491 161.757 251.63 162.168 251.641 162.68C251.641 163.149 251.513 163.571 251.257 163.944C251.001 164.307 250.643 164.595 250.185 164.808C249.726 165.021 249.198 165.128 248.601 165.128ZM257.189 157.208H255.157V165H254.037V157.208H252.821V156.264H254.037V155.656C254.037 154.707 254.277 154.008 254.757 153.56C255.247 153.112 256.037 152.888 257.125 152.888V153.848C256.399 153.848 255.887 153.987 255.589 154.264C255.301 154.541 255.157 155.005 255.157 155.656V156.264H257.189V157.208ZM259.512 154.616C259.288 154.616 259.096 154.536 258.936 154.376C258.776 154.216 258.696 154.019 258.696 153.784C258.696 153.549 258.776 153.357 258.936 153.208C259.096 153.048 259.288 152.968 259.512 152.968C259.736 152.968 259.928 153.048 260.088 153.208C260.248 153.357 260.328 153.549 260.328 153.784C260.328 154.019 260.248 154.216 260.088 154.376C259.928 154.536 259.736 154.616 259.512 154.616ZM260.072 156.264V165H258.952V156.264H260.072ZM270.512 160.184C270.512 160.568 270.501 160.861 270.48 161.064H263.232C263.264 161.725 263.424 162.291 263.712 162.76C264 163.229 264.379 163.587 264.848 163.832C265.317 164.067 265.829 164.184 266.384 164.184C267.109 164.184 267.717 164.008 268.208 163.656C268.709 163.304 269.04 162.829 269.2 162.232H270.384C270.171 163.085 269.712 163.784 269.008 164.328C268.315 164.861 267.44 165.128 266.384 165.128C265.563 165.128 264.827 164.947 264.176 164.584C263.525 164.211 263.013 163.688 262.64 163.016C262.277 162.333 262.096 161.539 262.096 160.632C262.096 159.725 262.277 158.931 262.64 158.248C263.003 157.565 263.509 157.043 264.16 156.68C264.811 156.317 265.552 156.136 266.384 156.136C267.216 156.136 267.941 156.317 268.56 156.68C269.189 157.043 269.669 157.533 270 158.152C270.341 158.76 270.512 159.437 270.512 160.184ZM269.376 160.152C269.387 159.501 269.253 158.947 268.976 158.488C268.709 158.029 268.341 157.683 267.872 157.448C267.403 157.213 266.891 157.096 266.336 157.096C265.504 157.096 264.795 157.363 264.208 157.896C263.621 158.429 263.296 159.181 263.232 160.152H269.376ZM272.049 160.616C272.049 159.72 272.231 158.936 272.593 158.264C272.956 157.581 273.452 157.059 274.081 156.696C274.721 156.323 275.441 156.136 276.241 156.136C277.009 156.136 277.703 156.323 278.321 156.696C278.94 157.069 279.393 157.555 279.681 158.152V153.16H280.801V165H279.681V163.048C279.415 163.656 278.977 164.157 278.369 164.552C277.761 164.936 277.047 165.128 276.225 165.128C275.425 165.128 274.705 164.941 274.065 164.568C273.436 164.195 272.94 163.667 272.577 162.984C272.225 162.301 272.049 161.512 272.049 160.616ZM279.681 160.632C279.681 159.928 279.537 159.309 279.249 158.776C278.961 158.243 278.567 157.832 278.065 157.544C277.575 157.256 277.031 157.112 276.433 157.112C275.815 157.112 275.26 157.251 274.769 157.528C274.279 157.805 273.889 158.211 273.601 158.744C273.324 159.267 273.185 159.891 273.185 160.616C273.185 161.331 273.324 161.96 273.601 162.504C273.889 163.037 274.279 163.448 274.769 163.736C275.26 164.013 275.815 164.152 276.433 164.152C277.031 164.152 277.575 164.008 278.065 163.72C278.567 163.432 278.961 163.021 279.249 162.488C279.537 161.955 279.681 161.336 279.681 160.632ZM288.821 153.816V160.856C288.821 161.965 289.082 162.787 289.605 163.32C290.138 163.853 290.863 164.12 291.781 164.12C292.698 164.12 293.413 163.859 293.925 163.336C294.447 162.803 294.709 161.976 294.709 160.856V153.816H295.829V160.84C295.829 162.259 295.45 163.325 294.693 164.04C293.946 164.755 292.97 165.112 291.765 165.112C290.559 165.112 289.578 164.755 288.821 164.04C288.074 163.325 287.701 162.259 287.701 160.84V153.816H288.821ZM301.335 165.128C300.332 165.128 299.511 164.899 298.871 164.44C298.242 163.971 297.89 163.336 297.815 162.536H298.967C299.02 163.027 299.25 163.427 299.655 163.736C300.071 164.035 300.626 164.184 301.319 164.184C301.927 164.184 302.402 164.04 302.743 163.752C303.095 163.464 303.271 163.107 303.271 162.68C303.271 162.381 303.175 162.136 302.983 161.944C302.791 161.752 302.546 161.603 302.247 161.496C301.959 161.379 301.564 161.256 301.063 161.128C300.412 160.957 299.884 160.787 299.479 160.616C299.074 160.445 298.727 160.195 298.439 159.864C298.162 159.523 298.023 159.069 298.023 158.504C298.023 158.077 298.151 157.683 298.407 157.32C298.663 156.957 299.026 156.669 299.495 156.456C299.964 156.243 300.498 156.136 301.095 156.136C302.034 156.136 302.791 156.376 303.367 156.856C303.943 157.325 304.252 157.976 304.295 158.808H303.175C303.143 158.296 302.94 157.885 302.567 157.576C302.204 157.256 301.703 157.096 301.063 157.096C300.498 157.096 300.039 157.229 299.687 157.496C299.335 157.763 299.159 158.093 299.159 158.488C299.159 158.829 299.26 159.112 299.463 159.336C299.676 159.549 299.938 159.72 300.247 159.848C300.556 159.965 300.972 160.099 301.495 160.248C302.124 160.419 302.626 160.584 302.999 160.744C303.372 160.904 303.692 161.139 303.959 161.448C304.226 161.757 304.364 162.168 304.375 162.68C304.375 163.149 304.247 163.571 303.991 163.944C303.735 164.307 303.378 164.595 302.919 164.808C302.46 165.021 301.932 165.128 301.335 165.128ZM314.387 160.184C314.387 160.568 314.376 160.861 314.355 161.064H307.107C307.139 161.725 307.299 162.291 307.587 162.76C307.875 163.229 308.254 163.587 308.723 163.832C309.192 164.067 309.704 164.184 310.259 164.184C310.984 164.184 311.592 164.008 312.083 163.656C312.584 163.304 312.915 162.829 313.075 162.232H314.259C314.046 163.085 313.587 163.784 312.883 164.328C312.19 164.861 311.315 165.128 310.259 165.128C309.438 165.128 308.702 164.947 308.051 164.584C307.4 164.211 306.888 163.688 306.515 163.016C306.152 162.333 305.971 161.539 305.971 160.632C305.971 159.725 306.152 158.931 306.515 158.248C306.878 157.565 307.384 157.043 308.035 156.68C308.686 156.317 309.427 156.136 310.259 156.136C311.091 156.136 311.816 156.317 312.435 156.68C313.064 157.043 313.544 157.533 313.875 158.152C314.216 158.76 314.387 159.437 314.387 160.184ZM313.251 160.152C313.262 159.501 313.128 158.947 312.851 158.488C312.584 158.029 312.216 157.683 311.747 157.448C311.278 157.213 310.766 157.096 310.211 157.096C309.379 157.096 308.67 157.363 308.083 157.896C307.496 158.429 307.171 159.181 307.107 160.152H313.251ZM317.556 157.816C317.802 157.272 318.175 156.851 318.676 156.552C319.188 156.253 319.812 156.104 320.548 156.104V157.272H320.244C319.434 157.272 318.783 157.491 318.292 157.928C317.802 158.365 317.556 159.096 317.556 160.12V165H316.436V156.264H317.556V157.816ZM325.241 165.128C324.238 165.128 323.417 164.899 322.777 164.44C322.148 163.971 321.796 163.336 321.721 162.536H322.873C322.926 163.027 323.156 163.427 323.561 163.736C323.977 164.035 324.532 164.184 325.225 164.184C325.833 164.184 326.308 164.04 326.649 163.752C327.001 163.464 327.177 163.107 327.177 162.68C327.177 162.381 327.081 162.136 326.889 161.944C326.697 161.752 326.452 161.603 326.153 161.496C325.865 161.379 325.47 161.256 324.969 161.128C324.318 160.957 323.79 160.787 323.385 160.616C322.98 160.445 322.633 160.195 322.345 159.864C322.068 159.523 321.929 159.069 321.929 158.504C321.929 158.077 322.057 157.683 322.313 157.32C322.569 156.957 322.932 156.669 323.401 156.456C323.87 156.243 324.404 156.136 325.001 156.136C325.94 156.136 326.697 156.376 327.273 156.856C327.849 157.325 328.158 157.976 328.201 158.808H327.081C327.049 158.296 326.846 157.885 326.473 157.576C326.11 157.256 325.609 157.096 324.969 157.096C324.404 157.096 323.945 157.229 323.593 157.496C323.241 157.763 323.065 158.093 323.065 158.488C323.065 158.829 323.166 159.112 323.369 159.336C323.582 159.549 323.844 159.72 324.153 159.848C324.462 159.965 324.878 160.099 325.401 160.248C326.03 160.419 326.532 160.584 326.905 160.744C327.278 160.904 327.598 161.139 327.865 161.448C328.132 161.757 328.27 162.168 328.281 162.68C328.281 163.149 328.153 163.571 327.897 163.944C327.641 164.307 327.284 164.595 326.825 164.808C326.366 165.021 325.838 165.128 325.241 165.128Z" fill="#4C5B68"/>
<path d="M232.07 117.81H226.85V123.15H221.99V117.81H216.77V113.22H221.99V107.85H226.85V113.22H232.07V117.81ZM241.665 122.1V117.96L251.145 104.4H256.875V117.66H259.335V122.1H256.875V126H251.745V122.1H241.665ZM252.105 110.04L247.065 117.66H252.105V110.04ZM277.268 108.57H267.908V112.71C268.308 112.27 268.868 111.91 269.588 111.63C270.308 111.35 271.088 111.21 271.928 111.21C273.428 111.21 274.668 111.55 275.648 112.23C276.648 112.91 277.378 113.79 277.838 114.87C278.298 115.95 278.528 117.12 278.528 118.38C278.528 120.72 277.868 122.58 276.548 123.96C275.228 125.32 273.368 126 270.968 126C269.368 126 267.978 125.73 266.798 125.19C265.618 124.63 264.708 123.86 264.068 122.88C263.428 121.9 263.078 120.77 263.018 119.49H268.028C268.148 120.11 268.438 120.63 268.898 121.05C269.358 121.45 269.988 121.65 270.788 121.65C271.728 121.65 272.428 121.35 272.888 120.75C273.348 120.15 273.578 119.35 273.578 118.35C273.578 117.37 273.338 116.62 272.858 116.1C272.378 115.58 271.678 115.32 270.758 115.32C270.078 115.32 269.518 115.49 269.078 115.83C268.638 116.15 268.348 116.58 268.208 117.12H263.258V104.07H277.268V108.57ZM281.36 114.75C281.36 111.31 282.02 108.6 283.34 106.62C284.68 104.64 286.83 103.65 289.79 103.65C292.75 103.65 294.89 104.64 296.21 106.62C297.55 108.6 298.22 111.31 298.22 114.75C298.22 118.23 297.55 120.96 296.21 122.94C294.89 124.92 292.75 125.91 289.79 125.91C286.83 125.91 284.68 124.92 283.34 122.94C282.02 120.96 281.36 118.23 281.36 114.75ZM293.18 114.75C293.18 112.73 292.96 111.18 292.52 110.1C292.08 109 291.17 108.45 289.79 108.45C288.41 108.45 287.5 109 287.06 110.1C286.62 111.18 286.4 112.73 286.4 114.75C286.4 116.11 286.48 117.24 286.64 118.14C286.8 119.02 287.12 119.74 287.6 120.3C288.1 120.84 288.83 121.11 289.79 121.11C290.75 121.11 291.47 120.84 291.95 120.3C292.45 119.74 292.78 119.02 292.94 118.14C293.1 117.24 293.18 116.11 293.18 114.75Z" fill="#3D4C71"/>
<circle opacity="0.1" cx="155" cy="134" r="30" fill="#FF3533"/>
<g opacity="0.25" filter="url(#filter1_f)">
<path d="M167.989 136.471C166.647 134.173 164.828 132.353 162.53 131.012C160.231 129.67 157.722 129 155.001 129C152.279 129 149.769 129.67 147.471 131.012C145.173 132.353 143.353 134.172 142.012 136.471C140.67 138.769 140 141.279 140 144C140 146.721 140.671 149.231 142.012 151.529C143.353 153.827 145.173 155.647 147.471 156.988C149.769 158.329 152.279 159 155 159C157.722 159 160.232 158.329 162.53 156.988C164.828 155.647 166.647 153.827 167.989 151.529C169.33 149.231 170 146.721 170 144C170 141.279 169.33 138.769 167.989 136.471ZM166.504 148.854C165.84 150.397 164.952 151.725 163.838 152.838C162.725 153.951 161.397 154.84 159.854 155.504C158.311 156.168 156.693 156.5 155.001 156.5C153.308 156.5 151.69 156.168 150.147 155.504C148.604 154.84 147.276 153.951 146.162 152.838C145.049 151.725 144.161 150.397 143.496 148.854C142.832 147.311 142.5 145.693 142.5 144C142.5 142.307 142.832 140.69 143.496 139.147C144.161 137.604 145.049 136.275 146.162 135.162C147.276 134.049 148.604 133.16 150.147 132.496C151.69 131.832 153.308 131.5 155.001 131.5C156.693 131.5 158.311 131.832 159.854 132.496C161.397 133.16 162.725 134.049 163.838 135.162C164.952 136.275 165.84 137.603 166.504 139.147C167.169 140.689 167.501 142.307 167.501 144C167.501 145.693 167.169 147.311 166.504 148.854Z" fill="#F8B544"/>
<path d="M161.348 145.933C161.022 145.829 160.704 145.856 160.391 146.012C160.078 146.168 159.87 146.415 159.766 146.754C159.441 147.796 158.838 148.639 157.959 149.283C157.081 149.928 156.094 150.25 155 150.25C153.907 150.25 152.921 149.928 152.041 149.283C151.163 148.639 150.56 147.796 150.235 146.754C150.131 146.415 149.926 146.168 149.62 146.012C149.314 145.856 148.998 145.829 148.672 145.933C148.334 146.037 148.087 146.243 147.93 146.548C147.774 146.854 147.748 147.17 147.852 147.495C148.334 149.071 149.232 150.341 150.547 151.304C151.863 152.268 153.347 152.749 155.001 152.749C156.654 152.749 158.139 152.268 159.454 151.304C160.768 150.34 161.667 149.071 162.148 147.495C162.253 147.17 162.227 146.854 162.071 146.548C161.914 146.243 161.673 146.038 161.348 145.933Z" fill="#F8B544"/>
<path d="M150 141.5C150.69 141.5 151.279 141.255 151.768 140.767C152.256 140.279 152.5 139.69 152.5 139C152.5 138.31 152.256 137.721 151.768 137.232C151.279 136.744 150.69 136.5 150 136.5C149.31 136.5 148.721 136.744 148.232 137.232C147.744 137.721 147.5 138.31 147.5 139C147.5 139.69 147.744 140.279 148.232 140.767C148.721 141.256 149.31 141.5 150 141.5Z" fill="#F8B544"/>
<path d="M160 136.5C159.31 136.5 158.72 136.744 158.232 137.232C157.744 137.721 157.5 138.31 157.5 139C157.5 139.69 157.744 140.279 158.232 140.767C158.72 141.256 159.31 141.5 160 141.5C160.69 141.5 161.279 141.255 161.768 140.767C162.256 140.279 162.5 139.69 162.5 139C162.5 138.31 162.256 137.721 161.768 137.232C161.279 136.744 160.69 136.5 160 136.5Z" fill="#F8B544"/>
</g>
<path d="M167.989 126.471C166.647 124.173 164.828 122.353 162.53 121.012C160.231 119.67 157.722 119 155.001 119C152.279 119 149.769 119.67 147.471 121.012C145.173 122.353 143.353 124.172 142.012 126.471C140.67 128.769 140 131.279 140 134C140 136.721 140.671 139.231 142.012 141.529C143.353 143.827 145.173 145.647 147.471 146.988C149.769 148.329 152.279 149 155 149C157.722 149 160.232 148.329 162.53 146.988C164.828 145.647 166.647 143.827 167.989 141.529C169.33 139.231 170 136.721 170 134C170 131.279 169.33 128.769 167.989 126.471ZM166.504 138.854C165.84 140.397 164.952 141.725 163.838 142.838C162.725 143.951 161.397 144.84 159.854 145.504C158.311 146.168 156.693 146.5 155.001 146.5C153.308 146.5 151.69 146.168 150.147 145.504C148.604 144.84 147.276 143.951 146.162 142.838C145.049 141.725 144.161 140.397 143.496 138.854C142.832 137.311 142.5 135.693 142.5 134C142.5 132.307 142.832 130.69 143.496 129.147C144.161 127.604 145.049 126.275 146.162 125.162C147.276 124.049 148.604 123.16 150.147 122.496C151.69 121.832 153.308 121.5 155.001 121.5C156.693 121.5 158.311 121.832 159.854 122.496C161.397 123.16 162.725 124.049 163.838 125.162C164.952 126.275 165.84 127.603 166.504 129.147C167.169 130.689 167.501 132.307 167.501 134C167.501 135.693 167.169 137.311 166.504 138.854Z" fill="#FF3533"/>
<path d="M161.348 135.933C161.022 135.829 160.704 135.856 160.391 136.012C160.078 136.168 159.87 136.415 159.766 136.754C159.441 137.796 158.838 138.639 157.959 139.283C157.081 139.928 156.094 140.25 155 140.25C153.907 140.25 152.921 139.928 152.041 139.283C151.163 138.639 150.56 137.796 150.235 136.754C150.131 136.415 149.926 136.168 149.62 136.012C149.314 135.856 148.998 135.829 148.672 135.933C148.334 136.037 148.087 136.243 147.93 136.548C147.774 136.854 147.748 137.17 147.852 137.495C148.334 139.071 149.232 140.341 150.547 141.304C151.863 142.268 153.347 142.749 155.001 142.749C156.654 142.749 158.139 142.268 159.454 141.304C160.768 140.34 161.667 139.071 162.148 137.495C162.253 137.17 162.227 136.854 162.071 136.548C161.914 136.243 161.673 136.038 161.348 135.933Z" fill="#FF3533"/>
<path d="M150 131.5C150.69 131.5 151.279 131.255 151.768 130.767C152.256 130.279 152.5 129.69 152.5 129C152.5 128.31 152.256 127.721 151.768 127.232C151.279 126.744 150.69 126.5 150 126.5C149.31 126.5 148.721 126.744 148.232 127.232C147.744 127.721 147.5 128.31 147.5 129C147.5 129.69 147.744 130.279 148.232 130.767C148.721 131.256 149.31 131.5 150 131.5Z" fill="#FF3533"/>
<path d="M160 126.5C159.31 126.5 158.72 126.744 158.232 127.232C157.744 127.721 157.5 128.31 157.5 129C157.5 129.69 157.744 130.279 158.232 130.767C158.72 131.256 159.31 131.5 160 131.5C160.69 131.5 161.279 131.255 161.768 130.767C162.256 130.279 162.5 129.69 162.5 129C162.5 128.31 162.256 127.721 161.768 127.232C161.279 126.744 160.69 126.5 160 126.5Z" fill="#FF3533"/>
<path d="M929.4 164.088H933.416V165H928.28V153.816H929.4V164.088ZM938.838 165.128C938.017 165.128 937.276 164.947 936.614 164.584C935.964 164.211 935.446 163.688 935.062 163.016C934.689 162.333 934.502 161.539 934.502 160.632C934.502 159.725 934.694 158.936 935.078 158.264C935.462 157.581 935.985 157.059 936.646 156.696C937.308 156.323 938.049 156.136 938.87 156.136C939.692 156.136 940.433 156.323 941.094 156.696C941.766 157.059 942.289 157.581 942.662 158.264C943.046 158.936 943.238 159.725 943.238 160.632C943.238 161.528 943.046 162.317 942.662 163C942.278 163.683 941.75 164.211 941.078 164.584C940.406 164.947 939.66 165.128 938.838 165.128ZM938.838 164.152C939.414 164.152 939.948 164.024 940.438 163.768C940.929 163.501 941.324 163.107 941.622 162.584C941.932 162.051 942.086 161.4 942.086 160.632C942.086 159.864 941.937 159.219 941.638 158.696C941.34 158.163 940.945 157.768 940.454 157.512C939.964 157.245 939.43 157.112 938.854 157.112C938.278 157.112 937.745 157.245 937.254 157.512C936.764 157.768 936.369 158.163 936.07 158.696C935.782 159.219 935.638 159.864 935.638 160.632C935.638 161.4 935.782 162.051 936.07 162.584C936.369 163.107 936.758 163.501 937.238 163.768C937.729 164.024 938.262 164.152 938.838 164.152ZM944.768 160.632C944.768 159.725 944.949 158.936 945.312 158.264C945.675 157.581 946.176 157.059 946.816 156.696C947.456 156.323 948.187 156.136 949.008 156.136C950.085 156.136 950.971 156.403 951.664 156.936C952.368 157.469 952.821 158.195 953.024 159.112H951.824C951.675 158.483 951.349 157.992 950.848 157.64C950.357 157.277 949.744 157.096 949.008 157.096C948.421 157.096 947.893 157.229 947.424 157.496C946.955 157.763 946.581 158.163 946.304 158.696C946.037 159.219 945.904 159.864 945.904 160.632C945.904 161.4 946.037 162.051 946.304 162.584C946.581 163.117 946.955 163.517 947.424 163.784C947.893 164.051 948.421 164.184 949.008 164.184C949.744 164.184 950.357 164.008 950.848 163.656C951.349 163.293 951.675 162.792 951.824 162.152H953.024C952.821 163.048 952.368 163.768 951.664 164.312C950.96 164.856 950.075 165.128 949.008 165.128C948.187 165.128 947.456 164.947 946.816 164.584C946.176 164.211 945.675 163.688 945.312 163.016C944.949 162.333 944.768 161.539 944.768 160.632ZM954.581 160.616C954.581 159.72 954.757 158.936 955.109 158.264C955.471 157.581 955.967 157.059 956.597 156.696C957.237 156.323 957.957 156.136 958.757 156.136C959.589 156.136 960.303 156.328 960.901 156.712C961.509 157.096 961.946 157.587 962.213 158.184V156.264H963.333V165H962.213V163.064C961.935 163.661 961.493 164.157 960.885 164.552C960.287 164.936 959.573 165.128 958.741 165.128C957.951 165.128 957.237 164.941 956.597 164.568C955.967 164.195 955.471 163.667 955.109 162.984C954.757 162.301 954.581 161.512 954.581 160.616ZM962.213 160.632C962.213 159.928 962.069 159.309 961.781 158.776C961.493 158.243 961.098 157.832 960.597 157.544C960.106 157.256 959.562 157.112 958.965 157.112C958.346 157.112 957.791 157.251 957.301 157.528C956.81 157.805 956.421 158.211 956.133 158.744C955.855 159.267 955.717 159.891 955.717 160.616C955.717 161.331 955.855 161.96 956.133 162.504C956.421 163.037 956.81 163.448 957.301 163.736C957.791 164.013 958.346 164.152 958.965 164.152C959.562 164.152 960.106 164.008 960.597 163.72C961.098 163.432 961.493 163.021 961.781 162.488C962.069 161.955 962.213 161.336 962.213 160.632ZM967.345 157.208V162.632C967.345 163.165 967.447 163.533 967.649 163.736C967.852 163.939 968.209 164.04 968.721 164.04H969.745V165H968.545C967.756 165 967.169 164.819 966.785 164.456C966.401 164.083 966.209 163.475 966.209 162.632V157.208H964.993V156.264H966.209V154.072H967.345V156.264H969.745V157.208H967.345ZM972.153 154.616C971.929 154.616 971.737 154.536 971.577 154.376C971.417 154.216 971.337 154.019 971.337 153.784C971.337 153.549 971.417 153.357 971.577 153.208C971.737 153.048 971.929 152.968 972.153 152.968C972.377 152.968 972.569 153.048 972.729 153.208C972.889 153.357 972.969 153.549 972.969 153.784C972.969 154.019 972.889 154.216 972.729 154.376C972.569 154.536 972.377 154.616 972.153 154.616ZM972.713 156.264V165H971.593V156.264H972.713ZM979.073 165.128C978.251 165.128 977.51 164.947 976.849 164.584C976.198 164.211 975.681 163.688 975.297 163.016C974.923 162.333 974.737 161.539 974.737 160.632C974.737 159.725 974.929 158.936 975.313 158.264C975.697 157.581 976.219 157.059 976.881 156.696C977.542 156.323 978.283 156.136 979.105 156.136C979.926 156.136 980.667 156.323 981.329 156.696C982.001 157.059 982.523 157.581 982.897 158.264C983.281 158.936 983.473 159.725 983.473 160.632C983.473 161.528 983.281 162.317 982.897 163C982.513 163.683 981.985 164.211 981.313 164.584C980.641 164.947 979.894 165.128 979.073 165.128ZM979.073 164.152C979.649 164.152 980.182 164.024 980.673 163.768C981.163 163.501 981.558 163.107 981.857 162.584C982.166 162.051 982.321 161.4 982.321 160.632C982.321 159.864 982.171 159.219 981.873 158.696C981.574 158.163 981.179 157.768 980.689 157.512C980.198 157.245 979.665 157.112 979.089 157.112C978.513 157.112 977.979 157.245 977.489 157.512C976.998 157.768 976.603 158.163 976.305 158.696C976.017 159.219 975.873 159.864 975.873 160.632C975.873 161.4 976.017 162.051 976.305 162.584C976.603 163.107 976.993 163.501 977.473 163.768C977.963 164.024 978.497 164.152 979.073 164.152ZM989.61 156.104C990.656 156.104 991.509 156.429 992.17 157.08C992.832 157.72 993.162 158.653 993.162 159.88V165H992.058V160.008C992.058 159.059 991.818 158.333 991.338 157.832C990.869 157.331 990.224 157.08 989.402 157.08C988.56 157.08 987.888 157.347 987.386 157.88C986.885 158.413 986.634 159.197 986.634 160.232V165H985.514V156.264H986.634V157.752C986.912 157.219 987.312 156.813 987.834 156.536C988.357 156.248 988.949 156.104 989.61 156.104ZM998.647 165.128C997.645 165.128 996.823 164.899 996.183 164.44C995.554 163.971 995.202 163.336 995.127 162.536H996.279C996.333 163.027 996.562 163.427 996.967 163.736C997.383 164.035 997.938 164.184 998.631 164.184C999.239 164.184 999.714 164.04 1000.06 163.752C1000.41 163.464 1000.58 163.107 1000.58 162.68C1000.58 162.381 1000.49 162.136 1000.3 161.944C1000.1 161.752 999.858 161.603 999.559 161.496C999.271 161.379 998.877 161.256 998.375 161.128C997.725 160.957 997.197 160.787 996.791 160.616C996.386 160.445 996.039 160.195 995.751 159.864C995.474 159.523 995.335 159.069 995.335 158.504C995.335 158.077 995.463 157.683 995.719 157.32C995.975 156.957 996.338 156.669 996.807 156.456C997.277 156.243 997.81 156.136 998.407 156.136C999.346 156.136 1000.1 156.376 1000.68 156.856C1001.26 157.325 1001.56 157.976 1001.61 158.808H1000.49C1000.46 158.296 1000.25 157.885 999.879 157.576C999.517 157.256 999.015 157.096 998.375 157.096C997.81 157.096 997.351 157.229 996.999 157.496C996.647 157.763 996.471 158.093 996.471 158.488C996.471 158.829 996.573 159.112 996.775 159.336C996.989 159.549 997.25 159.72 997.559 159.848C997.869 159.965 998.285 160.099 998.807 160.248C999.437 160.419 999.938 160.584 1000.31 160.744C1000.68 160.904 1001 161.139 1001.27 161.448C1001.54 161.757 1001.68 162.168 1001.69 162.68C1001.69 163.149 1001.56 163.571 1001.3 163.944C1001.05 164.307 1000.69 164.595 1000.23 164.808C999.773 165.021 999.245 165.128 998.647 165.128Z" fill="#4C5B68"/>
<path d="M944.07 117.81H938.85V123.15H933.99V117.81H928.77V113.22H933.99V107.85H938.85V113.22H944.07V117.81ZM953.005 108.87V104.1H961.315V126H955.975V108.87H953.005ZM964.825 114.75C964.825 111.31 965.485 108.6 966.805 106.62C968.145 104.64 970.295 103.65 973.255 103.65C976.215 103.65 978.355 104.64 979.675 106.62C981.015 108.6 981.685 111.31 981.685 114.75C981.685 118.23 981.015 120.96 979.675 122.94C978.355 124.92 976.215 125.91 973.255 125.91C970.295 125.91 968.145 124.92 966.805 122.94C965.485 120.96 964.825 118.23 964.825 114.75ZM976.645 114.75C976.645 112.73 976.425 111.18 975.985 110.1C975.545 109 974.635 108.45 973.255 108.45C971.875 108.45 970.965 109 970.525 110.1C970.085 111.18 969.865 112.73 969.865 114.75C969.865 116.11 969.945 117.24 970.105 118.14C970.265 119.02 970.585 119.74 971.065 120.3C971.565 120.84 972.295 121.11 973.255 121.11C974.215 121.11 974.935 120.84 975.415 120.3C975.915 119.74 976.245 119.02 976.405 118.14C976.565 117.24 976.645 116.11 976.645 114.75ZM984.395 114.75C984.395 111.31 985.055 108.6 986.375 106.62C987.715 104.64 989.865 103.65 992.825 103.65C995.785 103.65 997.925 104.64 999.245 106.62C1000.58 108.6 1001.25 111.31 1001.25 114.75C1001.25 118.23 1000.58 120.96 999.245 122.94C997.925 124.92 995.785 125.91 992.825 125.91C989.865 125.91 987.715 124.92 986.375 122.94C985.055 120.96 984.395 118.23 984.395 114.75ZM996.215 114.75C996.215 112.73 995.995 111.18 995.555 110.1C995.115 109 994.205 108.45 992.825 108.45C991.445 108.45 990.535 109 990.095 110.1C989.655 111.18 989.435 112.73 989.435 114.75C989.435 116.11 989.515 117.24 989.675 118.14C989.835 119.02 990.155 119.74 990.635 120.3C991.135 120.84 991.865 121.11 992.825 121.11C993.785 121.11 994.505 120.84 994.985 120.3C995.485 119.74 995.815 119.02 995.975 118.14C996.135 117.24 996.215 116.11 996.215 114.75Z" fill="#3D4C71"/>
<circle opacity="0.1" cx="867" cy="134" r="30" fill="#FF3533"/>
<g opacity="0.25" filter="url(#filter2_f)">
<path fill-rule="evenodd" clip-rule="evenodd" d="M854 131.477C854 124.577 859.879 119 866.99 119C874.121 119 880 124.577 880 131.477C880 134.954 878.711 138.181 876.589 140.917C874.248 143.935 871.362 146.565 868.114 148.629C867.371 149.106 866.7 149.142 865.884 148.629C862.618 146.565 859.732 143.935 857.411 140.917C855.288 138.181 854 134.954 854 131.477ZM862.709 131.865C862.709 134.177 864.632 135.995 866.99 135.995C869.349 135.995 871.291 134.177 871.291 131.865C871.291 129.572 869.349 127.665 866.99 127.665C864.632 127.665 862.709 129.572 862.709 131.865Z" fill="#F8B544"/>
</g>
<path fill-rule="evenodd" clip-rule="evenodd" d="M854 131.477C854 124.577 859.879 119 866.99 119C874.121 119 880 124.577 880 131.477C880 134.954 878.711 138.181 876.589 140.917C874.248 143.935 871.362 146.565 868.114 148.629C867.371 149.106 866.7 149.142 865.884 148.629C862.618 146.565 859.732 143.935 857.411 140.917C855.288 138.181 854 134.954 854 131.477ZM862.709 131.865C862.709 134.177 864.632 135.995 866.99 135.995C869.349 135.995 871.291 134.177 871.291 131.865C871.291 129.572 869.349 127.665 866.99 127.665C864.632 127.665 862.709 129.572 862.709 131.865Z" fill="#FF3533"/>
<path d="M562.304 165.112C561.269 165.112 560.331 164.872 559.488 164.392C558.645 163.901 557.979 163.224 557.488 162.36C557.008 161.485 556.768 160.499 556.768 159.4C556.768 158.301 557.008 157.32 557.488 156.456C557.979 155.581 558.645 154.904 559.488 154.424C560.331 153.933 561.269 153.688 562.304 153.688C563.349 153.688 564.293 153.933 565.136 154.424C565.979 154.904 566.64 155.581 567.12 156.456C567.6 157.32 567.84 158.301 567.84 159.4C567.84 160.499 567.6 161.485 567.12 162.36C566.64 163.224 565.979 163.901 565.136 164.392C564.293 164.872 563.349 165.112 562.304 165.112ZM562.304 164.136C563.136 164.136 563.883 163.944 564.544 163.56C565.205 163.176 565.728 162.627 566.112 161.912C566.496 161.187 566.688 160.349 566.688 159.4C566.688 158.451 566.496 157.619 566.112 156.904C565.728 156.189 565.205 155.64 564.544 155.256C563.883 154.872 563.136 154.68 562.304 154.68C561.472 154.68 560.725 154.872 560.064 155.256C559.403 155.64 558.88 156.189 558.496 156.904C558.112 157.619 557.92 158.451 557.92 159.4C557.92 160.349 558.112 161.187 558.496 161.912C558.88 162.627 559.403 163.176 560.064 163.56C560.725 163.944 561.472 164.136 562.304 164.136ZM573.985 156.104C575.031 156.104 575.884 156.429 576.545 157.08C577.207 157.72 577.537 158.653 577.537 159.88V165H576.433V160.008C576.433 159.059 576.193 158.333 575.713 157.832C575.244 157.331 574.599 157.08 573.777 157.08C572.935 157.08 572.263 157.347 571.761 157.88C571.26 158.413 571.009 159.197 571.009 160.232V165H569.889V156.264H571.009V157.752C571.287 157.219 571.687 156.813 572.209 156.536C572.732 156.248 573.324 156.104 573.985 156.104ZM581.134 153.16V165H580.014V153.16H581.134ZM584.231 154.616C584.007 154.616 583.815 154.536 583.655 154.376C583.495 154.216 583.415 154.019 583.415 153.784C583.415 153.549 583.495 153.357 583.655 153.208C583.815 153.048 584.007 152.968 584.231 152.968C584.455 152.968 584.647 153.048 584.807 153.208C584.967 153.357 585.047 153.549 585.047 153.784C585.047 154.019 584.967 154.216 584.807 154.376C584.647 154.536 584.455 154.616 584.231 154.616ZM584.791 156.264V165H583.671V156.264H584.791ZM591.423 156.104C592.468 156.104 593.322 156.429 593.983 157.08C594.644 157.72 594.975 158.653 594.975 159.88V165H593.871V160.008C593.871 159.059 593.631 158.333 593.151 157.832C592.682 157.331 592.036 157.08 591.215 157.08C590.372 157.08 589.7 157.347 589.199 157.88C588.698 158.413 588.447 159.197 588.447 160.232V165H587.327V156.264H588.447V157.752C588.724 157.219 589.124 156.813 589.647 156.536C590.17 156.248 590.762 156.104 591.423 156.104ZM605.356 160.184C605.356 160.568 605.345 160.861 605.324 161.064H598.076C598.108 161.725 598.268 162.291 598.556 162.76C598.844 163.229 599.223 163.587 599.692 163.832C600.161 164.067 600.673 164.184 601.228 164.184C601.953 164.184 602.561 164.008 603.052 163.656C603.553 163.304 603.884 162.829 604.044 162.232H605.228C605.015 163.085 604.556 163.784 603.852 164.328C603.159 164.861 602.284 165.128 601.228 165.128C600.407 165.128 599.671 164.947 599.02 164.584C598.369 164.211 597.857 163.688 597.484 163.016C597.121 162.333 596.94 161.539 596.94 160.632C596.94 159.725 597.121 158.931 597.484 158.248C597.847 157.565 598.353 157.043 599.004 156.68C599.655 156.317 600.396 156.136 601.228 156.136C602.06 156.136 602.785 156.317 603.404 156.68C604.033 157.043 604.513 157.533 604.844 158.152C605.185 158.76 605.356 159.437 605.356 160.184ZM604.22 160.152C604.231 159.501 604.097 158.947 603.82 158.488C603.553 158.029 603.185 157.683 602.716 157.448C602.247 157.213 601.735 157.096 601.18 157.096C600.348 157.096 599.639 157.363 599.052 157.896C598.465 158.429 598.14 159.181 598.076 160.152H604.22ZM625.364 153.816L622.196 165H620.948L618.132 155.464L615.252 165L614.036 165.016L610.932 153.816H612.132L614.692 163.624L617.556 153.816H618.804L621.588 163.624L624.164 153.816H625.364ZM634.981 160.184C634.981 160.568 634.97 160.861 634.949 161.064H627.701C627.733 161.725 627.893 162.291 628.181 162.76C628.469 163.229 628.848 163.587 629.317 163.832C629.786 164.067 630.298 164.184 630.853 164.184C631.578 164.184 632.186 164.008 632.677 163.656C633.178 163.304 633.509 162.829 633.669 162.232H634.853C634.64 163.085 634.181 163.784 633.477 164.328C632.784 164.861 631.909 165.128 630.853 165.128C630.032 165.128 629.296 164.947 628.645 164.584C627.994 164.211 627.482 163.688 627.109 163.016C626.746 162.333 626.565 161.539 626.565 160.632C626.565 159.725 626.746 158.931 627.109 158.248C627.472 157.565 627.978 157.043 628.629 156.68C629.28 156.317 630.021 156.136 630.853 156.136C631.685 156.136 632.41 156.317 633.029 156.68C633.658 157.043 634.138 157.533 634.469 158.152C634.81 158.76 634.981 159.437 634.981 160.184ZM633.845 160.152C633.856 159.501 633.722 158.947 633.445 158.488C633.178 158.029 632.81 157.683 632.341 157.448C631.872 157.213 631.36 157.096 630.805 157.096C629.973 157.096 629.264 157.363 628.677 157.896C628.09 158.429 627.765 159.181 627.701 160.152H633.845ZM638.134 158.2C638.422 157.592 638.865 157.096 639.462 156.712C640.07 156.328 640.785 156.136 641.606 156.136C642.406 156.136 643.121 156.323 643.75 156.696C644.379 157.059 644.87 157.581 645.222 158.264C645.585 158.936 645.766 159.72 645.766 160.616C645.766 161.512 645.585 162.301 645.222 162.984C644.87 163.667 644.374 164.195 643.734 164.568C643.105 164.941 642.395 165.128 641.606 165.128C640.774 165.128 640.054 164.941 639.446 164.568C638.849 164.184 638.411 163.688 638.134 163.08V165H637.03V153.16H638.134V158.2ZM644.63 160.616C644.63 159.891 644.486 159.267 644.198 158.744C643.921 158.211 643.537 157.805 643.046 157.528C642.555 157.251 642.001 157.112 641.382 157.112C640.785 157.112 640.235 157.256 639.734 157.544C639.243 157.832 638.854 158.243 638.566 158.776C638.278 159.309 638.134 159.928 638.134 160.632C638.134 161.336 638.278 161.955 638.566 162.488C638.854 163.021 639.243 163.432 639.734 163.72C640.235 164.008 640.785 164.152 641.382 164.152C642.001 164.152 642.555 164.013 643.046 163.736C643.537 163.448 643.921 163.037 644.198 162.504C644.486 161.96 644.63 161.331 644.63 160.616ZM650.835 165.128C649.832 165.128 649.011 164.899 648.371 164.44C647.742 163.971 647.39 163.336 647.315 162.536H648.467C648.52 163.027 648.75 163.427 649.155 163.736C649.571 164.035 650.126 164.184 650.819 164.184C651.427 164.184 651.902 164.04 652.243 163.752C652.595 163.464 652.771 163.107 652.771 162.68C652.771 162.381 652.675 162.136 652.483 161.944C652.291 161.752 652.046 161.603 651.747 161.496C651.459 161.379 651.064 161.256 650.563 161.128C649.912 160.957 649.384 160.787 648.979 160.616C648.574 160.445 648.227 160.195 647.939 159.864C647.662 159.523 647.523 159.069 647.523 158.504C647.523 158.077 647.651 157.683 647.907 157.32C648.163 156.957 648.526 156.669 648.995 156.456C649.464 156.243 649.998 156.136 650.595 156.136C651.534 156.136 652.291 156.376 652.867 156.856C653.443 157.325 653.752 157.976 653.795 158.808H652.675C652.643 158.296 652.44 157.885 652.067 157.576C651.704 157.256 651.203 157.096 650.563 157.096C649.998 157.096 649.539 157.229 649.187 157.496C648.835 157.763 648.659 158.093 648.659 158.488C648.659 158.829 648.76 159.112 648.963 159.336C649.176 159.549 649.438 159.72 649.747 159.848C650.056 159.965 650.472 160.099 650.995 160.248C651.624 160.419 652.126 160.584 652.499 160.744C652.872 160.904 653.192 161.139 653.459 161.448C653.726 161.757 653.864 162.168 653.875 162.68C653.875 163.149 653.747 163.571 653.491 163.944C653.235 164.307 652.878 164.595 652.419 164.808C651.96 165.021 651.432 165.128 650.835 165.128ZM656.543 154.616C656.319 154.616 656.127 154.536 655.967 154.376C655.807 154.216 655.727 154.019 655.727 153.784C655.727 153.549 655.807 153.357 655.967 153.208C656.127 153.048 656.319 152.968 656.543 152.968C656.767 152.968 656.959 153.048 657.119 153.208C657.279 153.357 657.359 153.549 657.359 153.784C657.359 154.019 657.279 154.216 657.119 154.376C656.959 154.536 656.767 154.616 656.543 154.616ZM657.103 156.264V165H655.983V156.264H657.103ZM661.095 157.208V162.632C661.095 163.165 661.197 163.533 661.399 163.736C661.602 163.939 661.959 164.04 662.471 164.04H663.495V165H662.295C661.506 165 660.919 164.819 660.535 164.456C660.151 164.083 659.959 163.475 659.959 162.632V157.208H658.743V156.264H659.959V154.072H661.095V156.264H663.495V157.208H661.095ZM673.247 160.184C673.247 160.568 673.236 160.861 673.215 161.064H665.967C665.999 161.725 666.159 162.291 666.447 162.76C666.735 163.229 667.113 163.587 667.583 163.832C668.052 164.067 668.564 164.184 669.119 164.184C669.844 164.184 670.452 164.008 670.943 163.656C671.444 163.304 671.775 162.829 671.935 162.232H673.119C672.905 163.085 672.447 163.784 671.743 164.328C671.049 164.861 670.175 165.128 669.119 165.128C668.297 165.128 667.561 164.947 666.911 164.584C666.26 164.211 665.748 163.688 665.375 163.016C665.012 162.333 664.831 161.539 664.831 160.632C664.831 159.725 665.012 158.931 665.375 158.248C665.737 157.565 666.244 157.043 666.895 156.68C667.545 156.317 668.287 156.136 669.119 156.136C669.951 156.136 670.676 156.317 671.295 156.68C671.924 157.043 672.404 157.533 672.735 158.152C673.076 158.76 673.247 159.437 673.247 160.184ZM672.111 160.152C672.121 159.501 671.988 158.947 671.711 158.488C671.444 158.029 671.076 157.683 670.607 157.448C670.137 157.213 669.625 157.096 669.071 157.096C668.239 157.096 667.529 157.363 666.943 157.896C666.356 158.429 666.031 159.181 665.967 160.152H672.111ZM678.304 165.128C677.301 165.128 676.48 164.899 675.84 164.44C675.21 163.971 674.858 163.336 674.784 162.536H675.936C675.989 163.027 676.218 163.427 676.624 163.736C677.04 164.035 677.594 164.184 678.288 164.184C678.896 164.184 679.37 164.04 679.712 163.752C680.064 163.464 680.24 163.107 680.24 162.68C680.24 162.381 680.144 162.136 679.952 161.944C679.76 161.752 679.514 161.603 679.216 161.496C678.928 161.379 678.533 161.256 678.032 161.128C677.381 160.957 676.853 160.787 676.448 160.616C676.042 160.445 675.696 160.195 675.408 159.864C675.13 159.523 674.992 159.069 674.992 158.504C674.992 158.077 675.12 157.683 675.376 157.32C675.632 156.957 675.994 156.669 676.464 156.456C676.933 156.243 677.466 156.136 678.064 156.136C679.002 156.136 679.76 156.376 680.336 156.856C680.912 157.325 681.221 157.976 681.264 158.808H680.144C680.112 158.296 679.909 157.885 679.536 157.576C679.173 157.256 678.672 157.096 678.032 157.096C677.466 157.096 677.008 157.229 676.656 157.496C676.304 157.763 676.128 158.093 676.128 158.488C676.128 158.829 676.229 159.112 676.432 159.336C676.645 159.549 676.906 159.72 677.216 159.848C677.525 159.965 677.941 160.099 678.464 160.248C679.093 160.419 679.594 160.584 679.968 160.744C680.341 160.904 680.661 161.139 680.928 161.448C681.194 161.757 681.333 162.168 681.344 162.68C681.344 163.149 681.216 163.571 680.96 163.944C680.704 164.307 680.346 164.595 679.888 164.808C679.429 165.021 678.901 165.128 678.304 165.128Z" fill="#4C5B68"/>
<path d="M573.07 117.81H567.85V123.15H562.99V117.81H557.77V113.22H562.99V107.85H567.85V113.22H573.07V117.81ZM582.005 108.87V104.1H590.315V126H584.975V108.87H582.005ZM599.855 121.26L596.525 129.87H593.255L594.995 121.26H599.855ZM617.858 108.57H608.498V112.71C608.898 112.27 609.458 111.91 610.178 111.63C610.898 111.35 611.678 111.21 612.518 111.21C614.018 111.21 615.258 111.55 616.238 112.23C617.238 112.91 617.968 113.79 618.428 114.87C618.888 115.95 619.118 117.12 619.118 118.38C619.118 120.72 618.458 122.58 617.138 123.96C615.818 125.32 613.958 126 611.558 126C609.958 126 608.568 125.73 607.388 125.19C606.208 124.63 605.298 123.86 604.658 122.88C604.018 121.9 603.668 120.77 603.608 119.49H608.618C608.738 120.11 609.028 120.63 609.488 121.05C609.948 121.45 610.578 121.65 611.378 121.65C612.318 121.65 613.018 121.35 613.478 120.75C613.938 120.15 614.168 119.35 614.168 118.35C614.168 117.37 613.928 116.62 613.448 116.1C612.968 115.58 612.268 115.32 611.348 115.32C610.668 115.32 610.108 115.49 609.668 115.83C609.228 116.15 608.938 116.58 608.798 117.12H603.848V104.07H617.858V108.57ZM621.95 114.75C621.95 111.31 622.61 108.6 623.93 106.62C625.27 104.64 627.42 103.65 630.38 103.65C633.34 103.65 635.48 104.64 636.8 106.62C638.14 108.6 638.81 111.31 638.81 114.75C638.81 118.23 638.14 120.96 636.8 122.94C635.48 124.92 633.34 125.91 630.38 125.91C627.42 125.91 625.27 124.92 623.93 122.94C622.61 120.96 621.95 118.23 621.95 114.75ZM633.77 114.75C633.77 112.73 633.55 111.18 633.11 110.1C632.67 109 631.76 108.45 630.38 108.45C629 108.45 628.09 109 627.65 110.1C627.21 111.18 626.99 112.73 626.99 114.75C626.99 116.11 627.07 117.24 627.23 118.14C627.39 119.02 627.71 119.74 628.19 120.3C628.69 120.84 629.42 121.11 630.38 121.11C631.34 121.11 632.06 120.84 632.54 120.3C633.04 119.74 633.37 119.02 633.53 118.14C633.69 117.24 633.77 116.11 633.77 114.75ZM641.52 114.75C641.52 111.31 642.18 108.6 643.5 106.62C644.84 104.64 646.99 103.65 649.95 103.65C652.91 103.65 655.05 104.64 656.37 106.62C657.71 108.6 658.38 111.31 658.38 114.75C658.38 118.23 657.71 120.96 656.37 122.94C655.05 124.92 652.91 125.91 649.95 125.91C646.99 125.91 644.84 124.92 643.5 122.94C642.18 120.96 641.52 118.23 641.52 114.75ZM653.34 114.75C653.34 112.73 653.12 111.18 652.68 110.1C652.24 109 651.33 108.45 649.95 108.45C648.57 108.45 647.66 109 647.22 110.1C646.78 111.18 646.56 112.73 646.56 114.75C646.56 116.11 646.64 117.24 646.8 118.14C646.96 119.02 647.28 119.74 647.76 120.3C648.26 120.84 648.99 121.11 649.95 121.11C650.91 121.11 651.63 120.84 652.11 120.3C652.61 119.74 652.94 119.02 653.1 118.14C653.26 117.24 653.34 116.11 653.34 114.75Z" fill="#3D4C71"/>
<circle opacity="0.1" cx="496" cy="134" r="30" fill="#FF3533"/>
<g opacity="0.25" filter="url(#filter3_f)">
<path d="M508.989 136.471C507.647 134.173 505.828 132.353 503.53 131.012C501.231 129.67 498.722 129 496.001 129C493.279 129 490.769 129.67 488.471 131.012C486.173 132.353 484.353 134.172 483.012 136.471C481.67 138.769 481 141.279 481 144C481 146.721 481.671 149.231 483.012 151.529C484.353 153.827 486.173 155.647 488.471 156.988C490.769 158.329 493.279 159 496 159C498.722 159 501.232 158.329 503.53 156.988C505.828 155.647 507.647 153.827 508.989 151.529C510.33 149.231 511 146.721 511 144C511 141.279 510.33 138.769 508.989 136.471ZM507.504 148.854C506.84 150.397 505.952 151.725 504.838 152.838C503.725 153.951 502.397 154.84 500.854 155.504C499.311 156.168 497.693 156.5 496.001 156.5C494.308 156.5 492.69 156.168 491.147 155.504C489.604 154.84 488.276 153.951 487.162 152.838C486.049 151.725 485.161 150.397 484.496 148.854C483.832 147.311 483.5 145.693 483.5 144C483.5 142.307 483.832 140.69 484.496 139.147C485.161 137.604 486.049 136.275 487.162 135.162C488.276 134.049 489.604 133.16 491.147 132.496C492.69 131.832 494.308 131.5 496.001 131.5C497.693 131.5 499.311 131.832 500.854 132.496C502.397 133.16 503.725 134.049 504.838 135.162C505.952 136.275 506.84 137.603 507.504 139.147C508.169 140.689 508.501 142.307 508.501 144C508.501 145.693 508.169 147.311 507.504 148.854Z" fill="#F8B544"/>
<path d="M502.348 145.933C502.022 145.829 501.704 145.856 501.391 146.012C501.078 146.168 500.87 146.415 500.766 146.754C500.441 147.796 499.838 148.639 498.959 149.283C498.081 149.928 497.094 150.25 496 150.25C494.907 150.25 493.921 149.928 493.041 149.283C492.163 148.639 491.56 147.796 491.235 146.754C491.131 146.415 490.926 146.168 490.62 146.012C490.314 145.856 489.998 145.829 489.672 145.933C489.334 146.037 489.087 146.243 488.93 146.548C488.774 146.854 488.748 147.17 488.852 147.495C489.334 149.071 490.232 150.341 491.547 151.304C492.863 152.268 494.347 152.749 496.001 152.749C497.654 152.749 499.139 152.268 500.454 151.304C501.768 150.34 502.667 149.071 503.148 147.495C503.253 147.17 503.227 146.854 503.071 146.548C502.914 146.243 502.673 146.038 502.348 145.933Z" fill="#F8B544"/>
<path d="M491 141.5C491.69 141.5 492.279 141.255 492.768 140.767C493.256 140.279 493.5 139.69 493.5 139C493.5 138.31 493.256 137.721 492.768 137.232C492.279 136.744 491.69 136.5 491 136.5C490.31 136.5 489.721 136.744 489.232 137.232C488.744 137.721 488.5 138.31 488.5 139C488.5 139.69 488.744 140.279 489.232 140.767C489.721 141.256 490.31 141.5 491 141.5Z" fill="#F8B544"/>
<path d="M501 136.5C500.31 136.5 499.72 136.744 499.232 137.232C498.744 137.721 498.5 138.31 498.5 139C498.5 139.69 498.744 140.279 499.232 140.767C499.72 141.256 500.31 141.5 501 141.5C501.69 141.5 502.279 141.255 502.768 140.767C503.256 140.279 503.5 139.69 503.5 139C503.5 138.31 503.256 137.721 502.768 137.232C502.279 136.744 501.69 136.5 501 136.5Z" fill="#F8B544"/>
</g>
<path d="M487.095 124.858C487.507 125.173 487.931 125.472 488.371 125.739C488.146 126.279 487.948 126.849 487.77 127.438H489.576C489.679 127.136 489.778 126.829 489.895 126.542C490.732 126.926 491.605 127.218 492.5 127.438H499.504C500.411 127.217 501.297 126.918 502.141 126.526C502.258 126.817 502.355 127.13 502.462 127.438H504.235C504.058 126.848 503.86 126.28 503.634 125.739C504.076 125.472 504.5 125.173 504.909 124.858C505.696 125.625 506.383 126.492 506.952 127.438H509.472C507.031 122.452 501.918 119 496.002 119C490.083 119 484.973 122.452 482.533 127.438H485.051C485.621 126.492 486.307 125.623 487.095 124.858ZM503.602 123.756C503.371 123.921 503.14 124.083 502.899 124.233C502.6 123.683 502.275 123.161 501.923 122.69C502.516 122.999 503.072 123.36 503.602 123.756ZM501.432 125.021C500.674 125.368 499.894 125.649 499.092 125.846C498.868 124.226 498.544 122.662 498.084 121.466C499.38 122.121 500.527 123.364 501.432 125.021ZM495.831 121.23C495.888 121.229 495.944 121.223 496.002 121.223C496.06 121.223 496.115 121.229 496.172 121.23C496.583 121.902 497.077 123.581 497.442 126.132C496.965 126.189 496.485 126.224 496.003 126.224C495.518 126.224 495.039 126.189 494.564 126.132C494.926 123.581 495.421 121.902 495.831 121.23ZM493.91 121.492C493.456 122.684 493.135 124.236 492.912 125.847C492.121 125.653 491.355 125.378 490.612 125.04C491.513 123.399 492.645 122.156 493.91 121.492ZM490.079 122.69C489.728 123.161 489.405 123.684 489.102 124.233C488.862 124.084 488.63 123.922 488.4 123.757C488.93 123.36 489.486 122.999 490.079 122.69Z" fill="#FF3533"/>
<path d="M504.909 143.143C504.498 142.828 504.071 142.529 503.634 142.26C503.856 141.722 504.056 141.152 504.235 140.562H502.462C502.36 140.87 502.26 141.181 502.143 141.473C501.298 141.081 500.41 140.785 499.505 140.562H492.502C491.607 140.782 490.735 141.075 489.898 141.458C489.779 141.17 489.681 140.862 489.577 140.562H487.772C487.949 141.152 488.148 141.721 488.372 142.261C487.931 142.528 487.508 142.828 487.096 143.141C486.309 142.376 485.623 141.507 485.055 140.562H482.536C484.976 145.546 490.086 149 496.004 149C501.921 149 507.033 145.546 509.473 140.562H506.953C506.383 141.507 505.697 142.376 504.909 143.143ZM488.4 144.245C488.63 144.08 488.863 143.917 489.102 143.769C489.405 144.318 489.728 144.84 490.079 145.311C489.486 145.001 488.93 144.641 488.4 144.245ZM490.61 142.962C491.353 142.628 492.12 142.349 492.91 142.157C493.133 143.769 493.454 145.315 493.908 146.512C492.645 145.845 491.513 144.6 490.61 142.962ZM496.173 146.77C496.115 146.772 496.06 146.777 496.002 146.777C495.944 146.777 495.888 146.772 495.831 146.77C495.421 146.098 494.926 144.418 494.562 141.868C495.037 141.811 495.517 141.775 496.001 141.775C496.486 141.775 496.965 141.811 497.441 141.868C497.074 144.418 496.583 146.098 496.173 146.77ZM498.084 146.533C498.544 145.338 498.868 143.774 499.092 142.153C499.894 142.351 500.674 142.632 501.432 142.979C500.527 144.637 499.38 145.88 498.084 146.533ZM501.923 145.31C502.275 144.837 502.6 144.314 502.899 143.767C503.14 143.917 503.372 144.08 503.602 144.245C503.073 144.641 502.516 145.001 501.923 145.31Z" fill="#FF3533"/>
<path d="M485.495 136.981L486.093 134.885C486.251 134.326 486.373 133.776 486.483 133.032H486.507C486.629 133.763 486.739 134.301 486.885 134.885L487.445 136.981H489.188L491.016 131.023H489.201L488.689 133.387C488.555 134.07 488.434 134.74 488.348 135.422H488.324C488.202 134.739 488.044 134.071 487.885 133.399L487.288 131.023H485.825L485.192 133.472C485.045 134.056 484.875 134.741 484.753 135.422H484.729C484.631 134.739 484.509 134.081 484.387 133.459L483.912 131.021H482.022L483.753 136.98H485.495V136.981Z" fill="#FF3533"/>
<path d="M498.169 133.385C498.034 134.068 497.914 134.738 497.83 135.421H497.805C497.684 134.738 497.524 134.069 497.367 133.397L496.767 131.022H495.304L494.671 133.47C494.524 134.055 494.354 134.739 494.232 135.421H494.208C494.11 134.738 493.988 134.079 493.866 133.457L493.391 131.019H491.502L493.233 136.978H494.975L495.573 134.883C495.731 134.322 495.853 133.773 495.963 133.029H495.987C496.109 133.76 496.219 134.298 496.366 134.883L496.926 136.978H498.669L500.494 131.019H498.678L498.169 133.385Z" fill="#FF3533"/>
<path d="M507.653 133.385C507.518 134.068 507.397 134.738 507.313 135.421H507.29C507.169 134.738 507.008 134.069 506.85 133.397L506.253 131.022H504.788L504.154 133.47C504.008 134.055 503.837 134.739 503.714 135.421H503.691C503.594 134.738 503.473 134.079 503.351 133.457L502.875 131.019H500.984L502.717 136.978H504.457L505.057 134.883C505.215 134.322 505.338 133.773 505.447 133.029H505.47C505.591 133.76 505.7 134.298 505.847 134.883L506.407 136.978H508.15L509.977 131.019H508.16L507.653 133.385Z" fill="#FF3533"/>
<line opacity="0.5" x1="400.5" y1="84" x2="400.5" y2="184" stroke="#F1F3F6"/>
<line opacity="0.5" x1="746.5" y1="84" x2="746.5" y2="184" stroke="#F1F3F6"/>
<defs>
<filter id="filter0_f" x="0" y="0" width="1148" height="308" filterUnits="userSpaceOnUse" color-interpolation-filters="sRGB">
<feFlood flood-opacity="0" result="BackgroundImageFix"/>
<feBlend mode="normal" in="SourceGraphic" in2="BackgroundImageFix" result="shape"/>
<feGaussianBlur stdDeviation="27" result="effect1_foregroundBlur"/>
</filter>
<filter id="filter1_f" x="86" y="75" width="138" height="138" filterUnits="userSpaceOnUse" color-interpolation-filters="sRGB">
<feFlood flood-opacity="0" result="BackgroundImageFix"/>
<feBlend mode="normal" in="SourceGraphic" in2="BackgroundImageFix" result="shape"/>
<feGaussianBlur stdDeviation="27" result="effect1_foregroundBlur"/>
</filter>
<filter id="filter2_f" x="800" y="65" width="134" height="138" filterUnits="userSpaceOnUse" color-interpolation-filters="sRGB">
<feFlood flood-opacity="0" result="BackgroundImageFix"/>
<feBlend mode="normal" in="SourceGraphic" in2="BackgroundImageFix" result="shape"/>
<feGaussianBlur stdDeviation="27" result="effect1_foregroundBlur"/>
</filter>
<filter id="filter3_f" x="427" y="75" width="138" height="138" filterUnits="userSpaceOnUse" color-interpolation-filters="sRGB">
<feFlood flood-opacity="0" result="BackgroundImageFix"/>
<feBlend mode="normal" in="SourceGraphic" in2="BackgroundImageFix" result="shape"/>
<feGaussianBlur stdDeviation="27" result="effect1_foregroundBlur"/>
</filter>
</defs>
</svg>
