<svg width="170" height="30" viewBox="0 0 170 30" fill="none" xmlns="http://www.w3.org/2000/svg">
<path d="M36.375 21.0179H44.5C43.875 23.8323 42.4375 25.988 40.375 27.6047C38.25 29.2215 35.6875 29.9999 32.5625 29.9999C30.1875 29.9999 28.125 29.5209 26.25 28.6227C27.625 26.8862 28.625 24.7904 29.25 22.455C30.0625 23.3532 31.125 23.7724 32.4375 23.7724C34.375 23.7724 35.6875 22.8742 36.375 21.0179Z" fill="white"/>
<path d="M29.25 13.0539C28.6875 10.6586 27.6875 8.62272 26.25 6.82631C28.125 5.92811 30.1875 5.44907 32.5 5.44907C35.625 5.44907 38.25 6.22751 40.3125 7.78439C42.4375 9.34128 43.8125 11.5568 44.4375 14.4311H36.3125C35.625 12.6347 34.3125 11.6766 32.375 11.6766C31.125 11.7365 30.0625 12.1556 29.25 13.0539Z" fill="white"/>
<path fill-rule="evenodd" clip-rule="evenodd" d="M71.8752 19.461C71.9377 18.7425 72.0002 18.0239 72.0002 17.3053C72.0002 14.9101 71.4377 12.8143 70.3752 11.0179C69.3127 9.22152 67.8752 7.84427 66.0002 6.88619C64.1252 5.92811 62.0002 5.44907 59.5627 5.44907C57.1252 5.44907 54.9377 5.92811 53.0002 6.94607C51.1252 7.96404 49.6252 9.34128 48.5627 11.1976C47.5002 13.0539 47.0002 15.2095 47.0002 17.6646C47.0002 20.1197 47.5627 22.3353 48.6252 24.1317C49.6877 25.988 51.1877 27.4251 53.0627 28.3832C54.9377 29.4012 57.1252 29.8802 59.5627 29.8802C61.5627 29.8802 63.4377 29.5209 65.0627 28.8023C66.6877 28.0838 68.0627 27.1257 69.1252 25.8682C70.2502 24.6107 71.0002 23.2335 71.3752 21.6167H63.2502C62.5002 23.1736 61.1877 23.9521 59.2502 23.9521C58.0002 23.9521 56.8752 23.5928 56.0002 22.8143C55.1252 22.0359 54.6252 20.8982 54.5002 19.4012H71.8752V19.461ZM62.8752 12.4551C63.7502 13.1736 64.1877 14.1916 64.1877 15.4491H54.6877C54.8752 14.1317 55.4377 13.1137 56.3127 12.3952C57.1877 11.6766 58.3127 11.3173 59.5627 11.3173C60.8752 11.3173 62.0002 11.6766 62.8752 12.4551Z" fill="white"/>
<path d="M98.1877 8.26346C96.4377 6.46706 94.1252 5.50897 91.2502 5.50897C89.6252 5.50897 88.1252 5.80837 86.8127 6.46706C85.5002 7.06586 84.4377 7.90418 83.6877 8.92214V5.80837H76.0627V29.6407H83.6877V16.7066C83.6877 15.0898 84.1252 13.8922 85.0002 12.994C85.8752 12.0958 87.0002 11.6766 88.5002 11.6766C89.9377 11.6766 91.1252 12.0958 92.0002 12.994C92.8752 13.8922 93.3127 15.0898 93.3127 16.7066V29.6407H100.875V15.7485C100.813 12.5748 99.9377 10.0599 98.1877 8.26346Z" fill="white"/>
<path d="M120 29.6407V23.473H117.25C116.438 23.473 115.813 23.2934 115.438 22.994C115.063 22.6946 114.875 22.1557 114.875 21.4371V11.8563H119.875V5.80838H114.875V0H107.25V5.80838H104.188V11.8563H107.25V21.3174C107.25 24.2515 108 26.3473 109.563 27.6647C111.125 28.9221 113.25 29.5808 116 29.5808H120V29.6407Z" fill="white"/>
<path fill-rule="evenodd" clip-rule="evenodd" d="M124.125 11.2574C123.187 13.1137 122.687 15.2694 122.687 17.7245C122.687 20.1796 123.187 22.3353 124.125 24.1916C125.125 26.0479 126.437 27.485 128.125 28.5029C129.812 29.5209 131.625 30 133.625 30C135.375 30 136.937 29.6407 138.25 28.982C139.562 28.3233 140.625 27.4251 141.375 26.2874V29.6407H149V5.80835H141.375V9.16164C140.687 8.02392 139.625 7.12571 138.312 6.46703C137 5.80835 135.5 5.44907 133.687 5.44907C131.625 5.44907 129.75 5.92811 128.125 6.94607C126.437 7.96404 125.125 9.40116 124.125 11.2574ZM139.75 13.4131C140.812 14.491 141.375 15.9281 141.375 17.7245C141.375 19.5209 140.812 20.958 139.75 22.0359C138.687 23.1137 137.437 23.5928 135.937 23.5928C134.437 23.5928 133.125 23.0538 132.062 22.0359C131 20.958 130.5 19.5209 130.5 17.6646C130.5 15.8682 131 14.4311 132.062 13.4131C133.125 12.3353 134.437 11.8562 135.937 11.8562C137.437 11.8562 138.75 12.3952 139.75 13.4131Z" fill="white"/>
<path d="M165.5 6.70657C164.187 7.42513 163.062 8.4431 162.125 9.76046V5.80837H154.5V29.6407H162.125V18.5629C162.125 16.5868 162.625 15.2096 163.562 14.4311C164.5 13.6527 165.937 13.2335 167.875 13.2335H170V5.56885C168.312 5.56885 166.812 5.92813 165.5 6.70657Z" fill="white"/>
<path fill-rule="evenodd" clip-rule="evenodd" d="M1.5625 11.2574C0.5 13.1137 0 15.2694 0 17.7245C0 20.1796 0.5 22.3952 1.5625 24.1916C2.625 26.0479 4.125 27.485 6 28.4431C7.875 29.461 10.0625 29.9401 12.5 29.9401C15.5625 29.9401 18.1875 29.1616 20.3125 27.5449C22.4375 25.9281 23.8125 23.7724 24.4375 20.958H16.3125C15.625 22.7544 14.3125 23.7125 12.3125 23.7125C10.9375 23.7125 9.8125 23.1736 8.9375 22.1556C8.125 21.0778 7.6875 19.5808 7.6875 17.6646C7.6875 15.7485 8.125 14.2515 8.9375 13.2335C9.75 12.1556 10.875 11.6766 12.3125 11.6766C14.25 11.6766 15.625 12.5748 16.3125 14.4311H24.4375C23.8125 11.5568 22.375 9.40116 20.3125 7.78439C18.1875 6.22751 15.625 5.44907 12.5 5.44907C10.0625 5.44907 7.875 5.92811 6 6.94607C4.125 7.96403 2.625 9.40116 1.5625 11.2574Z" fill="white"/>
</svg>
