<svg width="68" height="12" viewBox="0 0 68 12" fill="none" xmlns="http://www.w3.org/2000/svg">
<path d="M14.55 8.40717H17.8C17.55 9.53291 16.975 10.3952 16.15 11.0419C15.3 11.6886 14.275 12 13.025 12C12.075 12 11.25 11.8084 10.5 11.4491C11.05 10.7545 11.45 9.91615 11.7 8.98202C12.025 9.3413 12.45 9.50896 12.975 9.50896C13.75 9.50896 14.275 9.14968 14.55 8.40717Z" fill="#3D4C71"/>
<path d="M11.7 5.22154C11.475 4.26346 11.075 3.44909 10.5 2.73052C11.25 2.37124 12.075 2.17963 13 2.17963C14.25 2.17963 15.3 2.491 16.125 3.11376C16.975 3.73651 17.525 4.62274 17.775 5.77244H14.525C14.25 5.05388 13.725 4.67064 12.95 4.67064C12.45 4.6946 12.025 4.86226 11.7 5.22154Z" fill="#3D4C71"/>
<path fill-rule="evenodd" clip-rule="evenodd" d="M28.75 7.78442C28.775 7.49699 28.8 7.20957 28.8 6.92214C28.8 5.96406 28.575 5.12573 28.15 4.40717C27.725 3.68861 27.15 3.13771 26.4 2.75448C25.65 2.37124 24.8001 2.17963 23.8251 2.17963C22.8501 2.17963 21.9751 2.37124 21.2001 2.77843C20.4501 3.18561 19.85 3.73651 19.425 4.47903C19 5.22154 18.8 6.08382 18.8 7.06585C18.8 8.04789 19.0251 8.93412 19.4501 9.65268C19.8751 10.3952 20.475 10.97 21.225 11.3533C21.975 11.7605 22.8501 11.9521 23.8251 11.9521C24.6251 11.9521 25.375 11.8084 26.025 11.5209C26.675 11.2335 27.225 10.8503 27.65 10.3473C28.1 9.8443 28.4 9.2934 28.55 8.64669H25.3C25 9.26945 24.4751 9.58083 23.7001 9.58083C23.2001 9.58083 22.75 9.43711 22.4 9.12573C22.05 8.81436 21.85 8.35927 21.8 7.76047H28.75V7.78442ZM25.15 4.98202C25.5 5.26945 25.675 5.67663 25.675 6.17963H21.875C21.95 5.65268 22.175 5.2455 22.525 4.95807C22.875 4.67064 23.3251 4.52693 23.8251 4.52693C24.3501 4.52693 24.8 4.67064 25.15 4.98202Z" fill="#3D4C71"/>
<path d="M39.275 3.30541C38.575 2.58685 37.65 2.20361 36.5 2.20361C35.85 2.20361 35.25 2.32337 34.725 2.58685C34.2 2.82637 33.775 3.1617 33.475 3.56888V2.32337H30.425V11.8563H33.475V6.68266C33.475 6.03595 33.65 5.55691 34 5.19763C34.35 4.83834 34.8001 4.67068 35.4001 4.67068C35.975 4.67068 36.45 4.83834 36.8 5.19763C37.15 5.55691 37.325 6.03595 37.325 6.68266V11.8563H40.35V6.29942C40.325 5.02996 39.975 4.02397 39.275 3.30541Z" fill="#3D4C71"/>
<path d="M47.9999 11.8563V9.38922H46.8999C46.5749 9.38922 46.3249 9.31737 46.1749 9.19761C46.0249 9.07784 45.9499 8.86228 45.9499 8.57485V4.74252H47.9499V2.32335H45.9499V0H42.8999V2.32335H41.6749V4.74252H42.8999V8.52695C42.8999 9.7006 43.1999 10.5389 43.8249 11.0659C44.4499 11.5689 45.2999 11.8323 46.3999 11.8323H47.9999V11.8563Z" fill="#3D4C71"/>
<path fill-rule="evenodd" clip-rule="evenodd" d="M49.65 4.50298C49.275 5.24549 49.075 6.10777 49.075 7.08981C49.075 8.07184 49.275 8.93412 49.65 9.67663C50.05 10.4191 50.5749 10.994 51.2499 11.4012C51.9249 11.8084 52.65 12 53.4499 12C54.1499 12 54.7749 11.8563 55.2999 11.5928C55.8249 11.3293 56.2499 10.97 56.5499 10.515V11.8563H59.5999V2.32334H56.5499V3.66466C56.2749 3.20957 55.8499 2.85029 55.3249 2.58681C54.7999 2.32334 54.1999 2.17963 53.4749 2.17963C52.6499 2.17963 51.8999 2.37124 51.2499 2.77843C50.5749 3.18561 50.05 3.76046 49.65 4.50298ZM55.9 5.36526C56.3249 5.79639 56.5499 6.37124 56.5499 7.08981C56.5499 7.80837 56.3249 8.38322 55.9 8.81436C55.4749 9.2455 54.9749 9.43711 54.3749 9.43711C53.7749 9.43711 53.2499 9.22154 52.8249 8.81436C52.4 8.38322 52.2 7.80837 52.2 7.06585C52.2 6.34729 52.4 5.77244 52.8249 5.36526C53.2499 4.93412 53.7749 4.7425 54.3749 4.7425C54.9749 4.7425 55.4999 4.95807 55.9 5.36526Z" fill="#3D4C71"/>
<path d="M66.2 2.68263C65.675 2.97005 65.225 3.37724 64.85 3.90419V2.32335H61.8V11.8563H64.85V7.42514C64.85 6.63473 65.05 6.08383 65.425 5.77245C65.8 5.46107 66.375 5.29341 67.15 5.29341H68V2.22754C67.325 2.22754 66.725 2.37125 66.2 2.68263Z" fill="#3D4C71"/>
<path fill-rule="evenodd" clip-rule="evenodd" d="M0.625 4.50298C0.2 5.24549 0 6.10777 0 7.08981C0 8.07184 0.2 8.95807 0.625 9.67663C1.05 10.4191 1.65 10.994 2.4 11.3772C3.15 11.7844 4.025 11.976 5 11.976C6.225 11.976 7.275 11.6647 8.125 11.018C8.975 10.3712 9.525 9.50897 9.775 8.38322H6.525C6.25 9.10178 5.725 9.48502 4.925 9.48502C4.375 9.48502 3.925 9.26945 3.575 8.86226C3.25 8.43112 3.075 7.83232 3.075 7.06585C3.075 6.29939 3.25 5.70058 3.575 5.2934C3.9 4.86226 4.35 4.67064 4.925 4.67064C5.7 4.67064 6.25 5.02993 6.525 5.77244H9.775C9.525 4.62274 8.95 3.76046 8.125 3.11376C7.275 2.491 6.25 2.17963 5 2.17963C4.025 2.17963 3.15 2.37124 2.4 2.77843C1.65 3.18561 1.05 3.76046 0.625 4.50298Z" fill="#FF3533"/>
</svg>
